<svg xmlns="http://www.w3.org/2000/svg" viewBox="0 0 512 512">
  <defs>
    <linearGradient id="w1" x1="0%" y1="0%" x2="100%" y2="0%">
      <stop offset="0%" style="stop-color:#4E7C5F"/>
      <stop offset="100%" style="stop-color:#7BAE95"/>
    </linearGradient>
    <linearGradient id="w2" x1="0%" y1="0%" x2="100%" y2="0%">
      <stop offset="0%" style="stop-color:#6B9E83"/>
      <stop offset="100%" style="stop-color:#9DC4B0"/>
    </linearGradient>
    <linearGradient id="w3" x1="0%" y1="0%" x2="100%" y2="0%">
      <stop offset="0%" style="stop-color:#8BBDA0"/>
      <stop offset="100%" style="stop-color:#B5D5C4"/>
    </linearGradient>
  </defs>

  <rect x="0" y="0" width="512" height="512" rx="120" fill="#F7FAF8"/>

  <g transform="translate(256,256)">
    <path d="M-140,-65 C-90,-100 -38,-34 14,-65 C66,-96 116,-34 140,-65"
      fill="none" stroke="url(#w1)" stroke-width="20" stroke-linecap="round"/>
    <path d="M-140,0 C-90,-35 -38,34 14,0 C66,-34 116,34 140,0"
      fill="none" stroke="url(#w2)" stroke-width="20" stroke-linecap="round"/>
    <path d="M-140,65 C-90,30 -38,100 14,65 C66,30 116,100 140,65"
      fill="none" stroke="url(#w3)" stroke-width="20" stroke-linecap="round"/>
  </g>
</svg>
